<?xml version="1.0" standalone="no"?>
<!DOCTYPE svg PUBLIC "-//W3C//DTD SVG 20010904//EN"
 "http://www.w3.org/TR/2001/REC-SVG-20010904/DTD/svg10.dtd">
<svg version="1.0" xmlns="http://www.w3.org/2000/svg"
 width="256.000000pt" height="256.000000pt" viewBox="0 0 256.000000 256.000000"
 preserveAspectRatio="xMidYMid meet">
<metadata>
Created by potrace 1.11, written by Peter Selinger 2001-2013
</metadata>
<g transform="translate(0.000000,256.000000) scale(0.100000,-0.100000)"
fill="#000000" stroke="none">
<path d="M1520 2466 c-48 -27 -84 -118 -96 -240 -3 -27 -7 -126 -9 -220 -4
-172 -8 -224 -25 -326 -6 -30 -13 -75 -16 -100 -4 -25 -10 -55 -14 -66 -8 -21
-9 -21 -62 -3 -36 12 -74 17 -118 14 -63 -3 -77 -7 -165 -45 -54 -24 -128 -91
-159 -145 -15 -25 -39 -51 -54 -59 -91 -47 -379 -321 -473 -450 -54 -73 -16
-119 98 -118 137 1 266 37 462 128 52 24 97 42 100 38 9 -9 -189 -192 -279
-259 -15 -11 -52 -38 -81 -61 -58 -44 -229 -145 -353 -209 l-77 -40 5 -37 c8
-47 35 -96 66 -120 50 -37 184 -62 335 -62 148 -1 190 3 295 27 230 54 435
172 620 357 105 104 222 264 264 358 11 23 22 42 27 42 15 0 52 -95 80 -208
37 -145 98 -279 154 -337 48 -50 179 -97 240 -88 39 6 95 30 95 40 0 5 -7 18
-15 30 -20 29 -42 119 -55 228 -26 219 -54 338 -105 449 -51 112 -120 176
-226 211 -53 18 -53 19 -39 81 5 23 12 59 16 80 10 63 14 425 5 474 -5 25 -11
65 -14 90 -16 139 -84 321 -155 420 -33 45 -89 97 -127 116 -44 22 -115 27
-145 10z"/>
</g>
</svg>
